<svg width="211.718994" height="59.906250" viewBox="0 0 211.719 59.9062" fill="none" xmlns="http://www.w3.org/2000/svg" xmlns:xlink="http://www.w3.org/1999/xlink">
	<desc>
			Created with Pixso.
	</desc>
	<defs/>
	<path id="{Illia}" d="M13.87 27.65Q14.9 26.04 14.9 22.78L14.9 12.54Q14.9 10.3 16.02 9.08Q16.05 9.05 16.09 9.01Q16.16 8.94 16.24 8.86Q17.42 7.79 19.57 7.79L20.73 7.79L20.73 0L17.03 0Q11.07 0 8 2.95Q7.66 3.26 7.37 3.61Q4.92 6.49 4.92 11.45L4.92 23.03Q4.92 24.51 4.18 25.28Q4.08 25.39 3.96 25.48Q3.25 26.04 2.1 26.04L0 26.04L0 33.85L2.1 33.85Q3.25 33.85 3.96 34.41Q4.08 34.51 4.18 34.62L4.18 34.62Q4.92 35.39 4.92 36.85L4.92 48.43Q4.92 53.43 7.39 56.31Q7.67 56.64 8 56.95Q11.07 59.9 17.03 59.9L20.73 59.9L20.73 52.09L19.57 52.09Q17.42 52.09 16.24 51.02Q16.16 50.95 16.09 50.87Q16.04 50.82 16 50.78Q14.9 49.57 14.9 47.35L14.9 37.1Q14.9 33.85 13.87 32.26Q13.77 32.11 13.66 31.96Q12.64 30.58 10.62 29.95Q12.68 29.3 13.7 27.9Q13.79 27.78 13.87 27.65ZM209.59 33.85L211.71 33.85L211.71 26.04L209.59 26.04Q208.44 26.04 207.74 25.48Q207.62 25.39 207.51 25.28Q206.78 24.51 206.78 23.03L206.78 11.45Q206.78 6.49 204.33 3.61Q204.03 3.26 203.7 2.95Q200.64 0 194.68 0L190.96 0L190.96 7.79L192.12 7.79Q194.31 7.79 195.48 8.88Q195.54 8.95 195.61 9.01Q195.64 9.05 195.67 9.08Q196.79 10.3 196.79 12.54L196.79 22.78Q196.79 26.04 197.81 27.65Q197.88 27.77 197.96 27.87Q199 29.3 201.09 29.95Q199.04 30.59 198 31.99Q197.9 32.12 197.81 32.26Q196.79 33.85 196.79 37.1L196.79 47.35Q196.79 49.57 195.69 50.78Q195.65 50.82 195.61 50.87Q195.54 50.94 195.48 51Q194.31 52.09 192.12 52.09L190.96 52.09L190.96 59.9L194.68 59.9Q200.64 59.9 203.7 56.95Q204.02 56.64 204.31 56.31Q206.78 53.43 206.78 48.43L206.78 36.85Q206.78 35.39 207.51 34.62L207.51 34.62Q207.62 34.51 207.74 34.41Q208.44 33.85 209.59 33.85Z" fill="#BBBBBB" fill-opacity="1.000000" fill-rule="evenodd"/>
	<path id="{Illia}" d="M37.38 2.68L27 2.68L27 47.48L37.38 47.48L37.38 2.68ZM58.37 2.68L48 2.68L48 47.48L80.82 47.48L80.82 39.03L58.37 39.03L58.37 2.68ZM97.03 2.68L86.65 2.68L86.65 47.48L119.48 47.48L119.48 39.03L97.03 39.03L97.03 2.68ZM135.68 2.68L125.31 2.68L125.31 47.48L135.68 47.48L135.68 2.68ZM155 37.89L175.8 37.89L179.77 47.48L190.64 47.48L170.61 2.68L160.38 2.68L140.41 47.48L151.03 47.48L155 37.89ZM165.44 12.85L172.53 30.01L158.33 30.01L165.44 12.85Z" fill="#FDCD79" fill-opacity="1.000000" fill-rule="evenodd"/>
</svg>
